<?xml version="1.0" encoding="utf-8"?>
<!-- Generator: Adobe Illustrator 16.0.3, SVG Export Plug-In . SVG Version: 6.00 Build 0)  -->
<!DOCTYPE svg PUBLIC "-//W3C//DTD SVG 1.1//EN" "http://www.w3.org/Graphics/SVG/1.1/DTD/svg11.dtd">
<svg xmlns="http://www.w3.org/2000/svg" xmlns:xlink="http://www.w3.org/1999/xlink" viewBox="0 0 924.002 435.2"
	 xml:space="preserve">
<path fill="#00A1E4" d="M213.361,0c0,0-38.167,3.347-53.361,20.641C144.806,37.935,0,217.385,0,217.385l116.113,0.084
	c0.097-21.728,18.249-39.827,39.996-39.827c21.766,0,39.933,18.131,39.997,39.885l34.218,0.024l-34.217,0.024
	c0,0.022,0.002,0.044,0.002,0.066c0,21.805-18.195,40-40,40s-40-18.195-40-40c0-0.003,0-0.006,0-0.009L0,217.717
	c0,0,144.806,179.531,160,196.833s53.361,20.65,53.361,20.65l710.641-0.15V0.15L213.361,0z"/>
</svg>
